<mxfile host="app.diagrams.net" modified="2025-08-20T18:57:34.858748Z" agent="Mozilla/5.0" version="24.7.7" editor="draw.io">
  <diagram id="diagram-1" name="Azure Architecture">
    <mxGraphModel dx="1280" dy="720" grid="1" gridSize="10" guides="1" tooltips="1" connect="1" arrows="1" fold="1" page="1" pageScale="1" pageWidth="1600" pageHeight="1000" math="0" shadow="0">
      <root>
        <mxCell id="0"/>
        <mxCell id="1" parent="0"/>
        <mxCell id="vnet" value="VNet 10.1.0.0/16" style="rounded=1;whiteSpace=wrap;html=1;strokeColor=#006699;fillColor=#dae8fc;" vertex="1" parent="1">
          <mxGeometry x="20" y="20" width="1200" height="700" as="geometry"/>
        </mxCell>
        <mxCell id="subnet_front" value="Subnet-Front 10.1.1.0/24" style="rounded=1;whiteSpace=wrap;html=1;strokeColor=#60a917;fillColor=#d5e8d4;" vertex="1" parent="vnet">
          <mxGeometry x="40" y="60" width="360" height="620" as="geometry"/>
        </mxCell>
        <mxCell id="subnet_app" value="Subnet-App 10.1.2.0/24" style="rounded=1;whiteSpace=wrap;html=1;strokeColor=#60a917;fillColor=#d5e8d4;" vertex="1" parent="vnet">
          <mxGeometry x="440" y="60" width="360" height="620" as="geometry"/>
        </mxCell>
        <mxCell id="subnet_data" value="Subnet-Data 10.1.3.0/24" style="rounded=1;whiteSpace=wrap;html=1;strokeColor=#b85450;fillColor=#f8cecc;" vertex="1" parent="vnet">
          <mxGeometry x="840" y="60" width="360" height="620" as="geometry"/>
        </mxCell>
        <mxCell id="firewall" value="Azure Firewall" style="rounded=1;whiteSpace=wrap;html=1;fillColor=#fff2cc;" vertex="1" parent="subnet_front">
          <mxGeometry x="60" y="80" width="160" height="60" as="geometry"/>
        </mxCell>
        <mxCell id="appgw" value="App Gateway / WAF" style="rounded=1;whiteSpace=wrap;html=1;fillColor=#fff2cc;" vertex="1" parent="subnet_front">
          <mxGeometry x="240" y="180" width="140" height="60" as="geometry"/>
        </mxCell>
        <mxCell id="aks" value="AKS / VM Scale Set" style="rounded=1;whiteSpace=wrap;html=1;fillColor=#e1d5e7;" vertex="1" parent="subnet_app">
          <mxGeometry x="480" y="200" width="220" height="80" as="geometry"/>
        </mxCell>
        <mxCell id="sql" value="Azure SQL" style="rounded=1;whiteSpace=wrap;html=1;fillColor=#ffe6cc;" vertex="1" parent="subnet_data">
          <mxGeometry x="900" y="200" width="160" height="60" as="geometry"/>
        </mxCell>
        <mxCell id="storage" value="Blob Storage" style="rounded=1;whiteSpace=wrap;html=1;fillColor=#d5e8d4;" vertex="1" parent="subnet_data">
          <mxGeometry x="900" y="320" width="160" height="60" as="geometry"/>
        </mxCell>
        <mxCell id="kv" value="Key Vault" style="rounded=1;whiteSpace=wrap;html=1;fillColor=#fff2cc;" vertex="1" parent="subnet_data">
          <mxGeometry x="900" y="440" width="160" height="60" as="geometry"/>
        </mxCell>
        <mxCell id="monitor" value="Azure Monitor / Defender" style="rounded=1;whiteSpace=wrap;html=1;fillColor=#dae8fc;" vertex="1" parent="1">
          <mxGeometry x="540" y="720" width="260" height="60" as="geometry"/>
        </mxCell>
        <mxCell id="user2" value="User / Internet" style="rounded=1;whiteSpace=wrap;html=1;fillColor=#ffffff;" vertex="1" parent="1">
          <mxGeometry x="60" y="720" width="180" height="60" as="geometry"/>
        </mxCell>
        <mxCell id="ae1" style="edgeStyle=orthogonalEdgeStyle;rounded=1;" edge="1" parent="1" source="user2" target="firewall">
          <mxGeometry relative="1" as="geometry"/>
        </mxCell>
        <mxCell id="ae2" style="edgeStyle=orthogonalEdgeStyle;rounded=1;" edge="1" parent="vnet" source="firewall" target="appgw">
          <mxGeometry relative="1" as="geometry"/>
        </mxCell>
        <mxCell id="ae3" style="edgeStyle=orthogonalEdgeStyle;rounded=1;" edge="1" parent="vnet" source="appgw" target="aks">
          <mxGeometry relative="1" as="geometry"/>
        </mxCell>
        <mxCell id="ae4" style="edgeStyle=orthogonalEdgeStyle;rounded=1;" edge="1" parent="vnet" source="aks" target="sql">
          <mxGeometry relative="1" as="geometry"/>
        </mxCell>
        <mxCell id="ae5" style="edgeStyle=orthogonalEdgeStyle;rounded=1;" edge="1" parent="vnet" source="aks" target="storage">
          <mxGeometry relative="1" as="geometry"/>
        </mxCell>
        <mxCell id="ae6" style="edgeStyle=orthogonalEdgeStyle;rounded=1;" edge="1" parent="vnet" source="kv" target="aks">
          <mxGeometry relative="1" as="geometry"/>
        </mxCell>
        <mxCell id="ae7" style="edgeStyle=orthogonalEdgeStyle;rounded=1;" edge="1" parent="1" source="monitor" target="aks">
          <mxGeometry relative="1" as="geometry"/>
        </mxCell>
        <mxCell id="ae8" style="edgeStyle=orthogonalEdgeStyle;rounded=1;" edge="1" parent="1" source="monitor" target="sql">
          <mxGeometry relative="1" as="geometry"/>
        </mxCell>
        <mxCell id="ae9" style="edgeStyle=orthogonalEdgeStyle;rounded=1;" edge="1" parent="1" source="monitor" target="storage">
          <mxGeometry relative="1" as="geometry"/>
        </mxCell>
      </root>
    </mxGraphModel>
  </diagram>
</mxfile>
